<svg xmlns="http://www.w3.org/2000/svg" width="79" height="42" viewBox="0 0 79 42">
  <g id="Group_60" data-name="Group 60" transform="translate(-0.431)">
    <rect id="Rectangle_9" data-name="Rectangle 9" width="79" height="42" rx="15" transform="translate(0.431)" fill="#f8f8f8"/>
    <g id="_Group_2" transform="translate(30.331 9.439)">
      <g id="_Group_3">
        <path id="_Path_" d="M18.562,12.77a5.458,5.458,0,0,1,2.6-4.581,5.588,5.588,0,0,0-4.4-2.38c-1.853-.194-3.649,1.108-4.593,1.108-.962,0-2.415-1.089-3.981-1.057A5.866,5.866,0,0,0,3.25,8.87c-2.133,3.694-.543,9.123,1.5,12.109,1.023,1.462,2.217,3.1,3.782,3.038,1.531-.063,2.1-.976,3.949-.976,1.83,0,2.366.976,3.962.939,1.642-.027,2.677-1.468,3.664-2.945a12.077,12.077,0,0,0,1.675-3.411A5.275,5.275,0,0,1,18.562,12.77Z" transform="translate(-2.237 0.006)"/>
        <path id="_Path_2" d="M15.539,3.851A5.376,5.376,0,0,0,16.768,0a5.473,5.473,0,0,0-3.539,1.831A5.116,5.116,0,0,0,11.967,5.54,4.525,4.525,0,0,0,15.539,3.851Z" transform="translate(-2.227)"/>
      </g>
    </g>
  </g>
</svg>
