<svg xmlns="http://www.w3.org/2000/svg" width="79" height="42" viewBox="0 0 79 42">
  <g id="Group_59" data-name="Group 59" transform="translate(-0.375)">
    <path id="Path_199328" data-name="Path 199328" d="M15,0H64A15,15,0,0,1,79,15V27A15,15,0,0,1,64,42H15A15,15,0,0,1,0,27V15A15,15,0,0,1,15,0Z" transform="translate(0.375)" fill="#f8f8f8"/>
    <g id="google" transform="translate(29.369 11.12)">
      <path id="Path_2" data-name="Path 2" d="M275.862,211.48h-8.085a.646.646,0,0,0-.646.646v2.585a.646.646,0,0,0,.646.646h4.553a6.078,6.078,0,0,1-2.616,3.066l1.941,3.361a9.718,9.718,0,0,0,4.955-8.5,6.551,6.551,0,0,0-.111-1.268A.649.649,0,0,0,275.862,211.48Z" transform="translate(-256.789 -203.293)" fill="#167ee6"/>
      <path id="Path_3" data-name="Path 3" d="M42.989,336.866a6.031,6.031,0,0,1-5.219-3.019l-3.361,1.937a9.9,9.9,0,0,0,13.533,3.632v0L46,336.051A5.987,5.987,0,0,1,42.989,336.866Z" transform="translate(-33.078 -320.923)" fill="#12b347"/>
      <path id="Path_4" data-name="Path 4" d="M260.955,394.145v0l-1.941-3.361a5.987,5.987,0,0,1-3.014.814v3.878A9.894,9.894,0,0,0,260.955,394.145Z" transform="translate(-246.09 -375.651)" fill="#0f993e"/>
      <path id="Path_5" data-name="Path 5" d="M3.878,133.07a5.986,5.986,0,0,1,.814-3.013l-3.36-1.938a9.865,9.865,0,0,0,0,9.9l3.361-1.937a5.988,5.988,0,0,1-.815-3.014Z" transform="translate(0 -123.159)" fill="#ffd500"/>
      <path id="Path_6" data-name="Path 6" d="M42.988,3.878a6,6,0,0,1,3.83,1.375.644.644,0,0,0,.867-.039l1.83-1.83a.651.651,0,0,0-.039-.953A9.889,9.889,0,0,0,34.408,4.959L37.769,6.9a6.031,6.031,0,0,1,5.219-3.019Z" transform="translate(-33.077 0.001)" fill="#ff4b26"/>
      <path id="Path_7" data-name="Path 7" d="M259.83,5.253a.644.644,0,0,0,.867-.039l1.83-1.83a.651.651,0,0,0-.037-.953A9.881,9.881,0,0,0,256,0V3.878a6,6,0,0,1,3.83,1.375Z" transform="translate(-246.09 0)" fill="#d93f21"/>
    </g>
  </g>
</svg>
