<svg id="Group_66551" data-name="Group 66551" xmlns="http://www.w3.org/2000/svg" width="33.09" height="33.09" viewBox="0 0 33.09 33.09">
  <path id="Path_199325" data-name="Path 199325" d="M16.545,0A16.545,16.545,0,1,1,0,16.545,16.545,16.545,0,0,1,16.545,0Z" transform="translate(0 0)" fill="#486ebf"/>
  <g id="Iconly_Bold_Camera" data-name="Iconly/Bold/Camera" transform="translate(9.025 10.228)">
    <g id="Camera">
      <path id="Camera-2" data-name="Camera" d="M11.829,13.236H3.3a3.255,3.255,0,0,1-3.3-3.2V5.67a3.255,3.255,0,0,1,3.3-3.2.15.15,0,0,0,.144-.088l.045-.088.063-.129c.2-.4.421-.862.557-1.127A1.845,1.845,0,0,1,5.779,0H9.341A1.851,1.851,0,0,1,11.02,1.036c.119.231.3.6.475.962l.107.221.076.161a.171.171,0,0,0,.151.088,3.255,3.255,0,0,1,3.3,3.2v4.363A3.255,3.255,0,0,1,11.829,13.236ZM7.563,4.708a3.009,3.009,0,0,0-2.11.852,2.8,2.8,0,0,0-.862,2.034,2.854,2.854,0,0,0,.87,2.042,3.028,3.028,0,0,0,2.1.844,2.99,2.99,0,0,0,2.1-.844,2.823,2.823,0,0,0,.007-4.084A3,3,0,0,0,7.563,4.708Zm4.243-.176A.665.665,0,1,0,12.5,5.2.675.675,0,0,0,11.806,4.532ZM7.563,9.38a1.853,1.853,0,0,1-1.3-.522,1.748,1.748,0,0,1-.537-1.263V7.588a1.694,1.694,0,0,1,.53-1.249,1.883,1.883,0,0,1,2.609-.007A1.75,1.75,0,0,1,9.4,7.595,1.824,1.824,0,0,1,7.563,9.38Z" fill="#fff"/>
    </g>
  </g>
</svg>
