<svg xmlns="http://www.w3.org/2000/svg" width="33.09" height="33.09" viewBox="0 0 33.09 33.09">
  <g id="Group_66552" data-name="Group 66552" transform="translate(0.326 0.277)">
    <path id="Path_199325" data-name="Path 199325" d="M16.545,0A16.545,16.545,0,1,1,0,16.545,16.545,16.545,0,0,1,16.545,0Z" transform="translate(-0.326 -0.277)" fill="#486ebf"/>
    <g id="Iconly_Bold_Image" data-name="Iconly/Bold/Image" transform="translate(9.674 9.723)">
      <g id="Image">
        <path id="Image-2" data-name="Image" d="M9.316,13H3.683A3.566,3.566,0,0,1,0,9.154V3.846A3.566,3.566,0,0,1,3.683,0H9.317A3.566,3.566,0,0,1,13,3.846V9.154A3.567,3.567,0,0,1,9.316,13ZM4.1,8.606c-.327,0-.662.249-1.121.831l-.025.031c-.292.37-.593.751-.891,1.122A.518.518,0,0,0,1.957,11a.465.465,0,0,0,.213.323,2.673,2.673,0,0,0,1.423.374H9.072a2.94,2.94,0,0,0,.914-.139,2.416,2.416,0,0,0,1.47-1.372,2.441,2.441,0,0,0,.128-1.781,1.471,1.471,0,0,0-.333-.51l0,0a7.028,7.028,0,0,0-1.214-1.038A.929.929,0,0,0,9.54,6.7a1.218,1.218,0,0,0-.886.524c-.115.155-.215.319-.32.493l-.067.111,0,.008A3.694,3.694,0,0,1,6.988,9.282,1.616,1.616,0,0,1,6.2,9.5a2.285,2.285,0,0,1-1.274-.51,3.569,3.569,0,0,0-.538-.318A.728.728,0,0,0,4.1,8.606ZM4.224,2.6A1.625,1.625,0,1,0,5.848,4.225,1.627,1.627,0,0,0,4.224,2.6Z" fill="#fff"/>
      </g>
    </g>
  </g>
</svg>
